<svg version="1.0" xmlns="http://www.w3.org/2000/svg" viewBox="0 0 52.2 143.5">
	<path fill="none" stroke="#1D1D1B" stroke-width="2.871" stroke-linejoin="bevel"
		d="M13.3 27.7L27.1 2.4l12.6 24.1M26.5 21.7v42.7" />
	<path fill="#E85D56"
		d="M42.6 91.7l-4.3.6 3.1 3.1-4.3-.4 2.3 3.7-4.1-1.4 1.4 4.1-3.7-2.3.4 4.4-3.1-3.1-.6 4.3-2.3-3.7-1.6 4.1-1.3-4.2-2.5 3.6-.4-4.3-3.2 2.9.6-4.3-3.8 2.1 1.6-4-4.2 1.1 2.5-3.5-4.3.1 3.2-2.9-4.3-.8 3.9-2.1-4-1.8 4.2-1.1-3.4-2.7 4.3-.1-2.7-3.4 4.3.9-1.9-4 3.9 1.9-.9-4.3 3.4 2.7.1-4.3 2.7 3.4 1.1-4.2 1.9 3.9 2-3.9.9 4.3 2.8-3.3-.1 4.4 3.6-2.6-1.2 4.3 4.1-1.7-2.1 3.9 4.3-.7-2.9 3.2 4.4.4-3.6 2.5 4.1 1.3-4 1.6zM42.9 129.9l-4.3.6 3 3.1-4.3-.4 2.3 3.7-4.1-1.4 1.4 4.1-3.7-2.3.4 4.4-3.1-3.1-.5 4.3-2.3-3.7-1.6 4.1-1.4-4.2-2.5 3.6-.3-4.3-3.3 2.9.7-4.3-3.9 2.1L17 135l-4.1 1.2 2.4-3.5-4.3.1 3.3-2.9-4.3-.8 3.8-2.1-3.9-1.8 4.2-1.1-3.5-2.7 4.4-.1-2.8-3.4 4.3.9-1.9-4 4 1.9-.9-4.3 3.4 2.7.1-4.3 2.7 3.4L25 110l1.8 3.9 2-3.9.9 4.3 2.9-3.3-.1 4.4 3.5-2.6-1.1 4.3 4-1.7-2 3.9 4.3-.7-3 3.2 4.4.4-3.6 2.5 4.2 1.3-4.1 1.6z" />
	</svg>