<svg version="1.0" xmlns="http://www.w3.org/2000/svg" viewBox="0 0 407 193">
  <circle fill="#F5F5F5" cx="48.2" cy="145" r="30.7" />
  <circle fill="#F5F5F5" cx="169.9" cy="129.2" r="23.9" />
  <circle fill="#F5F5F5" cx="267.9" cy="150.1" r="18.8" />
  <circle fill="#F5F5F5" cx="358.3" cy="140" r="30.7" />
  <circle fill="#F5F5F5" cx="53.4" cy="95.6" r="9.6" />
  <circle fill="#F5F5F5" cx="179.4" cy="37.7" r="9.6" />
  <circle fill="#F5F5F5" cx="155.7" cy="20.6" r="4" />
  <circle fill="#F5F5F5" cx="242" cy="16.6" r="4" />
  <circle fill="#F5F5F5" cx="272.9" cy="28.1" r="4" />
  <circle fill="#F5F5F5" cx="231.9" cy="58.8" r="4" />
  <circle fill="#F5F5F5" cx="201.4" cy="37.7" r="4" />
  <circle fill="#F5F5F5" cx="21.5" cy="24.5" r="4" />
  <circle fill="#F5F5F5" cx="37.4" cy="8.6" r="4" />
  <circle fill="#F5F5F5" cx="364.3" cy="45.2" r="4" />
  <circle fill="#F5F5F5" cx="267.9" cy="117" r="4" />
  <circle fill="#F5F5F5" cx="157.5" cy="85.9" r="4" />
  <circle fill="#F5F5F5" cx="372.2" cy="16.6" r="4" />
  <circle fill="#F5F5F5" cx="282.6" cy="103.4" r="9.6" />
  <circle fill="#F5F5F5" cx="251.6" cy="40.6" r="9.6" />
  <circle fill="#F5F5F5" cx="380.1" cy="40.6" r="9.6" />
  <circle fill="#F5F5F5" cx="389" cy="100.5" r="9.6" />
  <circle fill="#F5F5F5" cx="138.9" cy="90.8" r="9.6" />
  <circle fill="#F5F5F5" cx="17.6" cy="54.8" r="9.6" /></svg>