<svg version="1.0" xmlns="http://www.w3.org/2000/svg" viewBox="0 0 64.8 105.3">
  <path fill="#4143E7"
    d="M60.7 59.1l-7.4 1.1 5.3 5.3-7.5-.7 4 6.4-7.1-2.4 2.4 7.2-6.4-4 .7 7.5-5.2-5.3-1.1 7.4-3.9-6.4-2.7 7-2.4-7.1-4.3 6.2-.6-7.5-5.6 5 1.1-7.4-6.6 3.6 2.8-7L9 70l4.2-6.1-7.5.3 5.7-5L4 57.7l6.6-3.5-6.8-3.1 7.2-2-5.9-4.6 7.5-.2-4.7-5.8 7.3 1.5-3.2-6.8 6.8 3.1-1.6-7.3 5.9 4.7.2-7.5 4.6 5.8 1.9-7.2 3.2 6.8 3.5-6.7 1.5 7.4 5-5.6-.3 7.5 6.2-4.4-2 7.2 7-2.8-3.6 6.6 7.4-1.1-5 5.6 7.5.5-6.1 4.3 7.1 2.4-7 2.8z" />
  </svg>