<svg version="1.0" xmlns="http://www.w3.org/2000/svg" viewBox="0 0 100 100">
  <g fill="#E85D56">
    <path d="M15.5 33.3v10.8H75l11.6-7.6V26.1l-11 7.2z" />
    <path
      d="M15.5 21.4v9.9H75l11.6-7.6v-9.5l-11 7.2zM15.5 46.1v10.8H75l11.6-7.5V38.9l-11 7.2zM15.5 71.8v12H75l11.6-7.6V64.6l-11 7.2z" />
    <path
      d="M15.5 58.9v10.9H75l11.6-7.6V51.7l-11 7.2zM75.6 85.8H15.5V91h60.8l10.3-6.8v-5.6zM75 19.4l11.6-7.6V9.5H31.9l-16.5 9.7v.1H75zm-2.1-8.7l.8 1.8L63 17.1l-.8-1.8 10.7-4.6zm-11.6 0l.8 1.8-10.7 4.6-.8-1.8 10.7-4.6zm-11.5 0l.8 1.8-10.7 4.6-.8-1.8 10.7-4.6zm-11.5 0l.8 1.8-10.7 4.6-.8-1.8 10.7-4.6z" />
  </g>
</svg>