<?xml version="1.0" encoding="utf-8"?>
<!-- Generator: Adobe Illustrator 24.2.3, SVG Export Plug-In . SVG Version: 6.00 Build 0)  -->
<svg version="1.1" id="Layer_1" xmlns="http://www.w3.org/2000/svg" xmlns:xlink="http://www.w3.org/1999/xlink" x="0px" y="0px"
	 width="1288px" height="2207px" viewBox="0 0 1288 2207" style="enable-background:new 0 0 1288 2207;" xml:space="preserve">
<style type="text/css">
	.st0{fill:#FFFFFF;}
</style>
<path class="st0" d="M612.9,1992.7c-14-14-36.7-14-50.7,0c-14,14-14,36.7,0,50.7l25.3,25.3l25.3-25.3
	C626.8,2029.4,626.8,2006.7,612.9,1992.7z M600.2,2030.7c-7,7-18.3,7-25.3,0c-7-7-7-18.3,0-25.3c7-7,18.3-7,25.3,0
	C607.2,2012.4,607.2,2023.7,600.2,2030.7z"/>
<path class="st0" d="M601.8,2135c14,14,36.7,14,50.7,0c14-14,14-36.7,0-50.7l-25.3-25.3l-25.3,25.3
	C587.8,2098.3,587.8,2121,601.8,2135z M614.4,2097c7-7,18.3-7,25.3,0c7,7,7,18.3,0,25.3c-7,7-18.3,7-25.3,0
	C607.4,2115.4,607.4,2104,614.4,2097z"/>
<path class="st0" d="M652.4,1912.3c-14-14-36.7-14-50.7,0c-14,14-14,36.7,0,50.7l25.3,25.3l25.3-25.3
	C666.4,1949,666.4,1926.3,652.4,1912.3z M639.8,1950.3c-7,7-18.3,7-25.3,0c-7-7-7-18.3,0-25.3c7-7,18.3-7,25.3,0
	S646.8,1943.3,639.8,1950.3z"/>
<path class="st0" d="M522.6,2135c14,14,36.7,14,50.7,0c14-14,14-36.7,0-50.7l-25.3-25.3l-25.3,25.3
	C508.6,2098.3,508.6,2121,522.6,2135z M535.3,2097c7-7,18.3-7,25.3,0c7,7,7,18.3,0,25.3c-7,7-18.3,7-25.3,0
	C528.3,2115.4,528.3,2104,535.3,2097z"/>
<path class="st0" d="M692,1992.7c-14-14-36.7-14-50.7,0c-14,14-14,36.7,0,50.7l25.3,25.3l25.3-25.3
	C706,2029.4,706,2006.7,692,1992.7z M679.3,2030.7c-7,7-18.3,7-25.3,0c-7-7-7-18.3,0-25.3c7-7,18.3-7,25.3,0
	C686.3,2012.4,686.3,2023.7,679.3,2030.7z"/>
<path class="st0" d="M680.9,2135c14,14,36.7,14,50.7,0c14-14,14-36.7,0-50.7l-25.3-25.3l-25.3,25.3
	C666.9,2098.3,666.9,2121,680.9,2135z M693.6,2097c7-7,18.3-7,25.3,0c7,7,7,18.3,0,25.3c-7,7-18.3,7-25.3,0
	C686.6,2115.4,686.6,2104,693.6,2097z"/>
</svg>
