<?xml version="1.0" encoding="utf-8"?>
<!-- Generator: Adobe Illustrator 24.2.3, SVG Export Plug-In . SVG Version: 6.00 Build 0)  -->
<svg version="1.1" id="Layer_1" xmlns="http://www.w3.org/2000/svg" xmlns:xlink="http://www.w3.org/1999/xlink" x="0px" y="0px"
	 width="2460px" height="1751px" viewBox="0 0 2460 1751" style="enable-background:new 0 0 2460 1751;" xml:space="preserve">
<style type="text/css">
	.st0{fill:#FFFFFF;}
</style>
<path class="st0" d="M809.4,1541.7c-7.5-7.5-19.6-7.5-27.1,0c-7.5,7.5-7.5,19.6,0,27.1l13.5,13.5l13.5-13.5
	C816.8,1561.3,816.8,1549.2,809.4,1541.7z M802.6,1562c-3.7,3.7-9.8,3.7-13.5,0c-3.7-3.7-3.7-9.8,0-13.5c3.7-3.7,9.8-3.7,13.5,0
	S806.4,1558.3,802.6,1562z"/>
<path class="st0" d="M803.4,1617.8c7.5,7.5,19.6,7.5,27.1,0c7.5-7.5,7.5-19.6,0-27.1l-13.5-13.5l-13.5,13.5
	C796,1598.2,796,1610.3,803.4,1617.8z M810.2,1597.5c3.7-3.7,9.8-3.7,13.5,0s3.7,9.8,0,13.5c-3.7,3.7-9.8,3.7-13.5,0
	C806.5,1607.3,806.5,1601.2,810.2,1597.5z"/>
<path class="st0" d="M830.5,1498.7c-7.5-7.5-19.6-7.5-27.1,0c-7.5,7.5-7.5,19.6,0,27.1l13.5,13.5l13.5-13.5
	C838,1518.3,838,1506.2,830.5,1498.7z M823.7,1519c-3.7,3.7-9.8,3.7-13.5,0s-3.7-9.8,0-13.5c3.7-3.7,9.8-3.7,13.5,0
	C827.5,1509.2,827.5,1515.3,823.7,1519z"/>
<path class="st0" d="M761.1,1617.8c7.5,7.5,19.6,7.5,27.1,0c7.5-7.5,7.5-19.6,0-27.1l-13.5-13.5l-13.5,13.5
	C753.6,1598.2,753.6,1610.3,761.1,1617.8z M767.9,1597.5c3.7-3.7,9.8-3.7,13.5,0s3.7,9.8,0,13.5c-3.7,3.7-9.8,3.7-13.5,0
	C764.1,1607.3,764.1,1601.2,767.9,1597.5z"/>
<path class="st0" d="M851.7,1541.7c-7.5-7.5-19.6-7.5-27.1,0c-7.5,7.5-7.5,19.6,0,27.1l13.5,13.5l13.5-13.5
	C859.2,1561.3,859.2,1549.2,851.7,1541.7z M844.9,1562c-3.7,3.7-9.8,3.7-13.5,0s-3.7-9.8,0-13.5s9.8-3.7,13.5,0
	C848.7,1552.2,848.7,1558.3,844.9,1562z"/>
<path class="st0" d="M845.8,1617.8c7.5,7.5,19.6,7.5,27.1,0c7.5-7.5,7.5-19.6,0-27.1l-13.5-13.5l-13.5,13.5
	C838.3,1598.2,838.3,1610.3,845.8,1617.8z M852.6,1597.5c3.7-3.7,9.8-3.7,13.5,0c3.7,3.7,3.7,9.8,0,13.5c-3.7,3.7-9.8,3.7-13.5,0
	C848.8,1607.3,848.8,1601.2,852.6,1597.5z"/>
<g>
	<polygon class="st0" points="1781.9,1426.6 1765.2,1429.1 1777.2,1440.9 1760.4,1439.5 1769.4,1453.8 1753.4,1448.5 1758.8,1464.5 
		1744.4,1455.6 1746,1472.4 1734.1,1460.5 1731.8,1477.2 1722.9,1462.8 1716.8,1478.6 1711.5,1462.6 1701.9,1476.5 1700.4,1459.7 
		1687.9,1471 1690.3,1454.3 1675.5,1462.4 1681.7,1446.7 1665.5,1451.2 1675.1,1437.4 1658.2,1438 1670.9,1426.8 1654.3,1423.5 
		1669.2,1415.5 1653.8,1408.5 1670.1,1404.1 1656.7,1393.7 1673.6,1393.2 1663,1380.1 1679.6,1383.5 1672.3,1368.2 1687.6,1375.3 
		1684.1,1358.8 1697.3,1369.3 1697.7,1352.4 1708.2,1365.6 1712.4,1349.3 1719.6,1364.6 1727.4,1349.6 1730.9,1366.2 1742,1353.5 
		1741.5,1370.4 1755.3,1360.5 1750.9,1376.9 1766.6,1370.5 1758.6,1385.4 1775.3,1382.8 1764,1395.4 1780.9,1396.7 1767,1406.4 
		1783.1,1411.6 1767.4,1417.9 	"/>
</g>
<g>
	<polygon class="st0" points="1642.3,1505.8 1640.3,1506.1 1641.7,1507.5 1639.7,1507.3 1640.8,1509 1638.9,1508.4 1639.5,1510.3 
		1637.8,1509.2 1638,1511.2 1636.6,1509.8 1636.3,1511.8 1635.3,1510.1 1634.5,1511.9 1633.9,1510 1632.8,1511.7 1632.6,1509.7 
		1631.1,1511 1631.4,1509.1 1629.7,1510 1630.4,1508.2 1628.5,1508.7 1629.6,1507.1 1627.6,1507.1 1629.1,1505.8 1627.1,1505.4 
		1628.9,1504.5 1627.1,1503.6 1629,1503.1 1627.4,1501.9 1629.4,1501.8 1628.2,1500.3 1630.1,1500.7 1629.3,1498.9 1631.1,1499.7 
		1630.7,1497.8 1632.2,1499 1632.3,1497 1633.5,1498.6 1634,1496.6 1634.9,1498.4 1635.8,1496.7 1636.2,1498.6 1637.5,1497.1 
		1637.5,1499.1 1639.1,1498 1638.6,1499.9 1640.4,1499.1 1639.5,1500.9 1641.5,1500.6 1640.1,1502.1 1642.1,1502.2 1640.5,1503.4 
		1642.4,1504 1640.5,1504.7 	"/>
</g>
<g>
	<polygon class="st0" points="1658.1,1473.6 1653,1474.3 1656.6,1477.9 1651.6,1477.4 1654.3,1481.7 1649.4,1480.1 1651.1,1485 
		1646.7,1482.3 1647.2,1487.4 1643.6,1483.8 1642.9,1488.8 1640.2,1484.5 1638.4,1489.2 1636.8,1484.4 1633.9,1488.6 1633.5,1483.5 
		1629.7,1487 1630.4,1481.9 1625.9,1484.4 1627.8,1479.6 1622.9,1481 1625.8,1476.8 1620.7,1477 1624.5,1473.6 1619.5,1472.6 
		1624,1470.2 1619.4,1468.1 1624.3,1466.8 1620.3,1463.6 1625.4,1463.5 1622.2,1459.5 1627.2,1460.5 1625,1455.9 1629.6,1458.1 
		1628.5,1453.1 1632.5,1456.3 1632.6,1451.2 1635.8,1455.2 1637.1,1450.2 1639.2,1454.8 1641.6,1450.3 1642.7,1455.3 1646,1451.5 
		1645.9,1456.6 1650,1453.6 1648.7,1458.5 1653.4,1456.6 1651,1461.1 1656.1,1460.3 1652.7,1464.1 1657.7,1464.5 1653.6,1467.5 
		1658.4,1469 1653.7,1470.9 	"/>
</g>
<g>
	<polygon class="st0" points="1732.1,1323.6 1727,1324.3 1730.6,1327.9 1725.6,1327.4 1728.3,1331.7 1723.4,1330.1 1725.1,1335 
		1720.7,1332.3 1721.2,1337.4 1717.6,1333.8 1716.9,1338.8 1714.2,1334.5 1712.4,1339.2 1710.8,1334.4 1707.9,1338.6 1707.5,1333.5 
		1703.7,1337 1704.4,1331.9 1700,1334.4 1701.8,1329.6 1696.9,1331 1699.8,1326.8 1694.7,1327 1698.5,1323.6 1693.5,1322.6 
		1698,1320.2 1693.4,1318.1 1698.3,1316.8 1694.3,1313.6 1699.4,1313.5 1696.2,1309.5 1701.2,1310.5 1699,1305.9 1703.6,1308.1 
		1702.5,1303.1 1706.5,1306.3 1706.6,1301.2 1709.8,1305.2 1711.1,1300.2 1713.2,1304.8 1715.6,1300.3 1716.7,1305.3 1720,1301.5 
		1719.9,1306.6 1724,1303.6 1722.7,1308.5 1727.4,1306.6 1725,1311.1 1730.1,1310.3 1726.7,1314.1 1731.8,1314.5 1727.6,1317.5 
		1732.4,1319 1727.7,1320.9 	"/>
</g>
<g>
	<polygon class="st0" points="1646.5,1366.2 1644.5,1366.4 1645.9,1367.8 1643.9,1367.7 1645,1369.4 1643.1,1368.7 1643.8,1370.6 
		1642.1,1369.6 1642.2,1371.6 1640.8,1370.2 1640.6,1372.1 1639.5,1370.4 1638.8,1372.3 1638.2,1370.4 1637,1372.1 1636.9,1370.1 
		1635.4,1371.4 1635.7,1369.4 1633.9,1370.4 1634.6,1368.5 1632.7,1369.1 1633.9,1367.4 1631.9,1367.5 1633.4,1366.2 1631.4,1365.8 
		1633.2,1364.8 1631.2,1364 1633.2,1363.5 1631.7,1362.3 1633.7,1362.2 1632.4,1360.6 1634.4,1361.1 1633.5,1359.2 1635.2,1360.1 
		1634.9,1358.1 1636.5,1359.4 1636.5,1357.4 1637.8,1358.9 1638.2,1357 1639.1,1358.8 1640.1,1357 1640.5,1359 1641.8,1357.5 
		1641.7,1359.5 1643.2,1358.3 1642.8,1360.3 1644.7,1359.5 1643.7,1361.3 1645.7,1361 1644.4,1362.5 1646.4,1362.6 1644.7,1363.8 
		1646.6,1364.4 1644.8,1365.1 	"/>
</g>
<g>
	<polygon class="st0" points="1739.9,1294 1737.9,1294.3 1739.4,1295.7 1737.4,1295.5 1738.4,1297.2 1736.6,1296.6 1737.2,1298.5 
		1735.4,1297.4 1735.7,1299.4 1734.2,1298 1733.9,1300 1732.9,1298.3 1732.2,1300.2 1731.6,1298.3 1730.4,1299.9 1730.2,1297.9 
		1728.8,1299.3 1729.1,1297.3 1727.4,1298.3 1728.1,1296.4 1726.2,1296.9 1727.2,1295.3 1725.2,1295.4 1726.8,1294 1724.9,1293.7 
		1726.6,1292.7 1724.8,1291.9 1726.7,1291.4 1725.2,1290.1 1727.2,1290.1 1725.9,1288.5 1727.9,1288.9 1726.9,1287.1 1728.8,1288 
		1728.4,1286 1729.9,1287.2 1729.9,1285.2 1731.2,1286.8 1731.7,1284.9 1732.6,1286.7 1733.4,1284.9 1733.9,1286.9 1735.2,1285.4 
		1735.2,1287.4 1736.8,1286.2 1736.2,1288.1 1738.2,1287.4 1737.2,1289.1 1739.2,1288.8 1737.9,1290.3 1739.8,1290.5 1738.2,1291.6 
		1740.1,1292.2 1738.2,1293 	"/>
</g>
<g>
	<polygon class="st0" points="1608.4,1463.5 1606.4,1463.8 1607.8,1465.2 1605.8,1465.1 1606.9,1466.8 1605,1466.1 1605.6,1468 
		1603.9,1467 1604.1,1469 1602.7,1467.5 1602.4,1469.5 1601.4,1467.8 1600.7,1469.7 1600,1467.8 1598.9,1469.4 1598.7,1467.5 
		1597.2,1468.8 1597.5,1466.8 1595.8,1467.8 1596.5,1465.9 1594.6,1466.5 1595.7,1464.8 1593.7,1464.9 1595.2,1463.6 1593.3,1463.2 
		1595,1462.2 1593.2,1461.4 1595.1,1460.9 1593.6,1459.6 1595.6,1459.6 1594.3,1458 1596.3,1458.4 1595.4,1456.6 1597.2,1457.5 
		1596.8,1455.5 1598.4,1456.8 1598.4,1454.8 1599.6,1456.3 1600.1,1454.4 1601,1456.2 1601.9,1454.4 1602.3,1456.4 1603.6,1454.9 
		1603.6,1456.9 1605.2,1455.7 1604.7,1457.7 1606.5,1456.9 1605.6,1458.7 1607.6,1458.4 1606.2,1459.8 1608.2,1460 1606.6,1461.2 
		1608.5,1461.8 1606.7,1462.5 	"/>
</g>
</svg>
