<svg version="1.0" xmlns="http://www.w3.org/2000/svg" viewBox="0 0 100.1 105.5">
	<path fill="#4143E7"
		d="M49.7 41l-4.3.6 3.1 3-4.3-.3 2.3 3.7-4.1-1.4 1.4 4.1-3.7-2.3.4 4.4-3.1-3.1-.6 4.3-2.3-3.7-1.5 4.1-1.4-4.2-2.5 3.6-.4-4.3-3.2 2.9.6-4.3-3.8 2.1 1.6-4.1-4.2 1.2 2.5-3.6-4.3.2 3.2-2.9-4.2-.8 3.8-2.1-4-1.8 4.2-1.1-3.4-2.7 4.3-.1-2.7-3.4 4.3.9-1.9-4 3.9 1.8-.9-4.2 3.4 2.7.1-4.3 2.7 3.4 1.1-4.2 1.9 3.9 2-3.9.9 4.3 2.9-3.3-.2 4.4 3.6-2.6-1.2 4.3 4.1-1.7-2.1 3.9 4.3-.7-2.9 3.2 4.4.4-3.6 2.5 4.1 1.3-4 1.6zM41.6 15.5l-1.5.2 1.1 1.1-1.6-.1.8 1.3-1.4-.5.5 1.5-1.4-.9.2 1.6-1.1-1.1-.2 1.5-.8-1.3-.6 1.4-.5-1.4-.9 1.3-.1-1.6-1.1 1 .2-1.5-1.4.8.6-1.5-1.5.4.9-1.2h-1.6l1.2-1-1.5-.3 1.3-.7-1.4-.7 1.5-.4-1.2-1h1.5l-.9-1.2 1.5.3-.7-1.4 1.4.7-.3-1.6 1.2 1 .1-1.5.9 1.2.4-1.5.7 1.4.7-1.4.3 1.5 1-1.1v1.5l1.2-.9-.4 1.5 1.5-.6-.7 1.4 1.5-.3-1.1 1.2 1.6.1-1.3.9 1.5.5-1.4.6zM63.7 37.5l-1.6.3 1.1 1.1-1.5-.2.8 1.3-1.5-.4.5 1.4-1.3-.8.2 1.6-1.1-1.1-.3 1.5-.8-1.3-.5 1.4-.5-1.4-.9 1.2-.1-1.5-1.2 1 .2-1.5-1.3.7.5-1.4-1.4.4.8-1.3-1.5.1 1.2-1-1.6-.3 1.4-.8-1.4-.6 1.5-.4-1.2-1h1.5l-1-1.2 1.6.3-.7-1.4 1.4.6-.3-1.5 1.2 1v-1.6l1 1.2.4-1.5.6 1.5.7-1.4.4 1.5 1-1.2-.1 1.6 1.3-.9-.4 1.5 1.4-.6-.7 1.4 1.5-.3-1 1.2 1.6.1-1.3.9 1.5.5-1.5.5zM57.7 21.3l-1.5.2 1.1 1.1-1.6-.1.9 1.3-1.5-.5.5 1.5-1.3-.9.1 1.6-1.1-1.1-.2 1.5-.8-1.3-.6 1.5-.5-1.5-.8 1.3-.2-1.6-1.1 1.1.2-1.6-1.4.8.6-1.5-1.5.4.9-1.2h-1.5l1.1-1L46 21l1.4-.7-1.5-.7 1.5-.4-1.2-.9 1.6-.1-1-1.2 1.5.3-.7-1.4 1.5.7-.4-1.6 1.2 1 .1-1.5.9 1.2.4-1.5.7 1.4.7-1.4.3 1.5 1-1.1v1.5l1.3-.9-.4 1.5 1.4-.6-.7 1.4 1.5-.2-1 1.1 1.5.1-1.3.9 1.5.5-1.4.6zM15.2 40l-1.5.2 1.1 1.1-1.5-.1.8 1.3-1.5-.5.5 1.5-1.3-.8.1 1.5-1.1-1.1-.2 1.6-.8-1.4-.5 1.5-.5-1.5-.9 1.3-.2-1.6-1.1 1.1.2-1.5-1.3.7.5-1.4-1.5.4.9-1.3-1.5.1L5 40l-1.5-.3 1.4-.7-1.4-.7 1.5-.4-1.3-.9 1.6-.1-1-1.2 1.5.3-.6-1.4 1.4.7-.4-1.5 1.3.9v-1.5l1 1.2.3-1.5.7 1.4.7-1.4.3 1.6 1.1-1.2-.1 1.5 1.3-.9-.4 1.5 1.4-.5-.7 1.3 1.5-.2-1 1.1 1.5.2-1.2.9 1.4.4-1.4.6zM22.2 21.3l-1.6.2 1.1 1.1-1.5-.1.8 1.3-1.4-.5.4 1.5-1.3-.9.2 1.6-1.1-1.1-.2 1.5-.9-1.3-.5 1.5-.5-1.5-.9 1.3-.1-1.6-1.2 1.1.3-1.6-1.4.8.6-1.5-1.5.4.9-1.2h-1.6l1.2-1-1.6-.3 1.4-.7-1.4-.7 1.5-.4-1.2-.9 1.5-.1-1-1.2 1.6.3-.7-1.4 1.4.7-.3-1.6 1.2 1v-1.5l1 1.2.4-1.5.6 1.4.8-1.4.3 1.5 1-1.1v1.5l1.2-.9-.4 1.5 1.5-.6-.8 1.4 1.6-.2-1.1 1.1 1.6.1-1.3.9 1.5.5-1.5.6zM24.9 58.7l-1.6.3 1.1 1.1-1.5-.2.8 1.3-1.5-.4.5 1.4-1.3-.8.2 1.5-1.1-1-.2 1.5-.9-1.3-.5 1.4-.5-1.5-.9 1.3-.1-1.5-1.2 1 .2-1.5-1.3.7.5-1.4-1.4.4.8-1.3-1.5.1 1.2-1-1.6-.3 1.4-.8-1.4-.6 1.5-.4-1.2-1h1.5l-1-1.2 1.6.3-.7-1.4 1.4.6-.3-1.5 1.2 1v-1.6l1 1.2.4-1.5.6 1.4.7-1.3.4 1.5 1-1.2-.1 1.6 1.3-.9-.4 1.5 1.4-.6-.7 1.4 1.5-.3-1 1.2 1.6.1-1.3.9 1.5.5-1.5.5z" />
	<circle fill="#4143E7" cx="59.6" cy="72.1" r="23.9" /></svg>