<svg version="1.0" xmlns="http://www.w3.org/2000/svg" viewBox="0 0 1000 1000">
  <g fill="none" stroke="currentColor" stroke-width="2.835" stroke-miterlimit="10">
    <path d="M-234.5 889.5h.1" />
    <path stroke-dasharray=".283 11.337" d="M-223.2 891.5l1218.9 214.9" />
    <path d="M1001.3 1107.4h.1" />
  </g>
  <g fill="none" stroke="currentColor" stroke-width="2.835" stroke-miterlimit="10">
    <path d="M-178.1 678.9h.1" />
    <path stroke-dasharray=".283 11.337" d="M-166.8 680.9l1218.9 214.9" />
    <path d="M1057.7 896.8h.1" />
  </g>
  <g fill="none" stroke="currentColor" stroke-width="2.835" stroke-miterlimit="10">
    <path d="M-121.7 468.3h.2" />
    <path stroke-dasharray=".283 11.337" d="M-110.4 470.3l1218.9 214.9" />
    <path d="M1114.1 686.2h.2" />
  </g>
  <g fill="none" stroke="currentColor" stroke-width="2.835" stroke-miterlimit="10">
    <path d="M-65.3 257.8h.2" />
    <path stroke-dasharray=".283 11.337" d="M-54 259.7l1219 215" />
    <path d="M1170.5 475.7h.2" />
  </g>
  <g fill="none" stroke="currentColor" stroke-width="2.835" stroke-miterlimit="10">
    <path d="M-8.8 47.2h.1" />
    <path stroke-dasharray=".283 11.337" d="M2.5 49.2l1218.9 214.9" />
    <path d="M1227 265.1h.1" />
  </g>
  <g fill="none" stroke="currentColor" stroke-width="2.835" stroke-miterlimit="10">
    <path d="M47.6-163.4h.1" />
    <path stroke-dasharray=".283 11.337" d="M58.9-161.4L1277.8 53.5" />
    <path d="M1283.4 54.5h.1" />
  </g>
</svg>