<svg version="1.0" xmlns="http://www.w3.org/2000/svg" viewBox="0 0 1000 1000">
  <g fill="none" stroke="currentColor" stroke-width="2.835" stroke-miterlimit="10">
    <path d="M1265.6 920.6l-.1-.1" />
    <path stroke-dasharray=".283 11.337" d="M1261.6 909.8L838.3-253.3" />
    <path d="M836.4-258.6l-.1-.1" />
  </g>
  <g fill="none" stroke="currentColor" stroke-width="2.835" stroke-miterlimit="10">
    <path d="M1115.1 960.9v-.1" />
    <path stroke-dasharray=".283 11.337" d="M1111.2 950.1L687.9-213" />
    <path d="M685.9-218.3v-.1" />
  </g>
  <g fill="none" stroke="currentColor" stroke-width="2.835" stroke-miterlimit="10">
    <path d="M964.7 1001.2v-.1" />
    <path stroke-dasharray=".283 11.337" d="M960.8 990.4L537.5-172.7" />
    <path d="M535.5-178v-.1" />
  </g>
  <g fill="none" stroke="currentColor" stroke-width="2.835" stroke-miterlimit="10">
    <path d="M814.3 1041.5v-.1" />
    <path stroke-dasharray=".283 11.337" d="M810.4 1030.7L387.1-132.4" />
    <path d="M385.1-137.7v-.1" />
  </g>
  <g fill="none" stroke="currentColor" stroke-width="2.835" stroke-miterlimit="10">
    <path d="M663.9 1081.8v-.1" />
    <path stroke-dasharray=".283 11.337" d="M660 1071L236.7-92.1" />
    <path d="M234.7-97.4v-.1" />
  </g>
  <g fill="none" stroke="currentColor" stroke-width="2.835" stroke-miterlimit="10">
    <path d="M513.5 1122.1v-.1" />
    <path stroke-dasharray=".283 11.337" d="M509.6 1111.3L86.3-51.7" />
    <path d="M84.3-57.1v-.1" />
  </g>
  <g fill="none" stroke="currentColor" stroke-width="2.835" stroke-miterlimit="10">
    <path d="M363.1 1162.4v-.1" />
    <path stroke-dasharray=".283 11.337" d="M359.2 1151.6L-64.2-11.4" />
    <path d="M-66.1-16.8v-.1" />
  </g>
  <g fill="none" stroke="currentColor" stroke-width="2.835" stroke-miterlimit="10">
    <path d="M212.7 1202.7l-.1-.1" />
    <path stroke-dasharray=".283 11.337" d="M208.8 1191.9l-423.4-1163" />
    <path d="M-216.5 23.5l-.1-.1" />
  </g>
</svg>