<?xml version="1.0" encoding="utf-8"?>
<!-- Generator: Adobe Illustrator 24.2.3, SVG Export Plug-In . SVG Version: 6.00 Build 0)  -->
<svg version="1.1" id="Layer_1" xmlns="http://www.w3.org/2000/svg" xmlns:xlink="http://www.w3.org/1999/xlink" x="0px"
	y="0px" width="1030px" height="449px" viewBox="0 0 1030 449" style="enable-background:new 0 0 1030 449;"
	xml:space="preserve">
	<style type="text/css">
		.st0 {
			fill: #4143E7;
		}

		.st1 {
			fill: #E85D56;
		}
	</style>
	<polygon class="st0" points="1064.6,229.9 1041.8,233.2 1058.2,249.4 1035.3,247.4 1047.5,266.9 1025.7,259.7 1033.1,281.5 
	1013.5,269.4 1015.7,292.3 999.4,276 996.2,298.9 984.1,279.3 975.8,300.8 968.5,278.9 955.5,297.9 953.5,274.9 936.4,290.4 
	939.7,267.6 919.5,278.7 928,257.3 905.8,263.5 919,244.6 896,245.5 913.2,230.1 890.6,225.7 910.9,214.7 889.9,205.2 912.1,199.2 
	893.9,185 917,184.4 902.5,166.4 925.1,171 915.2,150.2 936.1,160 931.2,137.4 949.3,151.7 949.7,128.7 964.1,146.7 969.8,124.4 
	979.6,145.3 990.3,124.9 995,147.5 1010.2,130.1 1009.5,153.2 1028.3,139.8 1022.3,162.1 1043.7,153.4 1032.8,173.6 1055.5,170.1 
	1040.2,187.3 1063.2,189.1 1044.3,202.4 1066.3,209.4 1044.9,217.9 " />
	<polygon class="st0" points="930.7,315.8 926.1,316.5 929.4,319.8 924.7,319.4 927.2,323.3 922.8,321.9 924.3,326.3 920.3,323.9 
	920.7,328.5 917.4,325.2 916.8,329.9 914.3,325.9 912.6,330.2 911.1,325.8 908.5,329.7 908.1,325 904.6,328.1 905.3,323.5 
	901.1,325.8 902.9,321.4 898.3,322.6 901,318.8 896.3,319 899.9,315.8 895.2,314.9 899.4,312.7 895.1,310.8 899.6,309.5 
	895.9,306.7 900.6,306.5 897.7,302.9 902.3,303.8 900.3,299.6 904.5,301.5 903.5,297 907.2,299.9 907.3,295.2 910.2,298.9 
	911.4,294.3 913.4,298.6 915.6,294.4 916.5,299 919.6,295.5 919.5,300.2 923.3,297.4 922.1,302 926.4,300.2 924.2,304.3 
	928.9,303.6 925.7,307.1 930.4,307.5 926.6,310.2 931.1,311.6 926.7,313.4 " />
	<polygon class="st0" points="1023.6,110 1018.9,110.7 1022.3,114 1017.6,113.6 1020.1,117.5 1015.6,116.1 1017.1,120.5 1013.1,118 
	1013.6,122.7 1010.3,119.4 1009.6,124.1 1007.2,120.1 1005.5,124.4 1004,120 1001.3,123.9 1000.9,119.2 997.4,122.3 998.1,117.7 
	994,119.9 995.7,115.6 991.2,116.8 993.9,113 989.2,113.2 992.7,110 988.1,109.1 992.2,106.9 987.9,105 992.5,103.7 988.8,100.9 
	993.5,100.7 990.5,97.1 995.1,98 993.1,93.8 997.4,95.7 996.4,91.2 1000.1,94.1 1000.2,89.4 1003.1,93.1 1004.2,88.5 1006.2,92.8 
	1008.4,88.6 1009.4,93.2 1012.5,89.7 1012.3,94.4 1016.2,91.6 1014.9,96.2 1019.3,94.4 1017.1,98.5 1021.7,97.8 1018.6,101.3 
	1023.3,101.7 1019.4,104.4 1023.9,105.8 1019.5,107.6 " />
	<path class="st1" d="M114.8,240.9c-24-24-62.9-24-86.9,0s-24,62.9,0,86.9l43.5,43.5l43.5-43.5C138.8,303.8,138.8,264.9,114.8,240.9z
	 M93.1,306.1c-12,12-31.5,12-43.5,0s-12-31.5,0-43.5s31.5-12,43.5,0S105.1,294.1,93.1,306.1z" />
	<path class="st1" d="M174.7,339.1c-8.5-8.5-22.2-8.5-30.7,0s-8.5,22.2,0,30.7l15.4,15.4l15.4-15.4
	C183.2,361.3,183.2,347.6,174.7,339.1z M167,362.1c-4.2,4.2-11.1,4.2-15.4,0c-4.2-4.2-4.2-11.1,0-15.4c4.2-4.2,11.1-4.2,15.4,0
	C171.3,351,171.3,357.9,167,362.1z" />
	<path class="st1"
		d="M-0.7,264.5c-8.5-8.5-22.2-8.5-30.7,0s-8.5,22.2,0,30.7l15.4,15.4l15.4-15.4C7.8,286.8,7.8,273-0.7,264.5z
	 M-8.4,287.6c-4.2,4.2-11.1,4.2-15.4,0c-4.2-4.2-4.2-11.1,0-15.4c4.2-4.2,11.1-4.2,15.4,0C-4.1,276.4-4.1,283.3-8.4,287.6z" />
	<path class="st1" d="M115.2,364.6c-3-3-7.9-3-10.9,0s-3,7.9,0,10.9l5.4,5.4l5.4-5.4C118.2,372.4,118.2,367.6,115.2,364.6z
	 M112.5,372.7c-1.5,1.5-3.9,1.5-5.4,0s-1.5-3.9,0-5.4s3.9-1.5,5.4,0C114,368.8,114,371.2,112.5,372.7z" />
	<path class="st1" d="M18.8,344.3c-3-3-7.9-3-10.9,0s-3,7.9,0,10.9l5.4,5.4l5.4-5.4C21.8,352.1,21.8,347.3,18.8,344.3z M16.1,352.4
	c-1.5,1.5-3.9,1.5-5.4,0s-1.5-3.9,0-5.4s3.9-1.5,5.4,0S17.6,350.9,16.1,352.4z" />
</svg>