<svg version="1.0" xmlns="http://www.w3.org/2000/svg" viewBox="0 0 1288 2207">
	<path fill="#FFF"
		d="M612.9 1992.7c-14-14-36.7-14-50.7 0s-14 36.7 0 50.7l25.3 25.3 25.3-25.3c14-14 14-36.7.1-50.7zm-12.7 38c-7 7-18.3 7-25.3 0s-7-18.3 0-25.3 18.3-7 25.3 0 7 18.3 0 25.3zM601.8 2135c14 14 36.7 14 50.7 0s14-36.7 0-50.7l-25.3-25.3-25.3 25.3c-14.1 14-14.1 36.7-.1 50.7zm12.6-38c7-7 18.3-7 25.3 0s7 18.3 0 25.3-18.3 7-25.3 0c-7-6.9-7-18.3 0-25.3zM652.4 1912.3c-14-14-36.7-14-50.7 0s-14 36.7 0 50.7l25.3 25.3 25.3-25.3c14.1-14 14.1-36.7.1-50.7zm-12.6 38c-7 7-18.3 7-25.3 0s-7-18.3 0-25.3 18.3-7 25.3 0 7 18.3 0 25.3zM522.6 2135c14 14 36.7 14 50.7 0s14-36.7 0-50.7L548 2059l-25.3 25.3c-14.1 14-14.1 36.7-.1 50.7zm12.7-38c7-7 18.3-7 25.3 0s7 18.3 0 25.3-18.3 7-25.3 0c-7-6.9-7-18.3 0-25.3zM692 1992.7c-14-14-36.7-14-50.7 0s-14 36.7 0 50.7l25.3 25.3 25.3-25.3c14.1-14 14.1-36.7.1-50.7zm-12.7 38c-7 7-18.3 7-25.3 0s-7-18.3 0-25.3 18.3-7 25.3 0 7 18.3 0 25.3zM680.9 2135c14 14 36.7 14 50.7 0s14-36.7 0-50.7l-25.3-25.3-25.3 25.3c-14.1 14-14.1 36.7-.1 50.7zm12.7-38c7-7 18.3-7 25.3 0s7 18.3 0 25.3-18.3 7-25.3 0c-7-6.9-7-18.3 0-25.3z" />
	</svg>