<svg version="1.0" xmlns="http://www.w3.org/2000/svg" viewBox="0 0 1288 2207">
  <path fill="#FFF"
    d="M478.3 1917.2c-13-.9-24.1 8.9-25 21.9-.9 13 8.9 24.1 21.9 25l23.4 1.5 1.5-23.4c1-13-8.8-24.1-21.8-25zm10.1 24.2c-.4 6.4-6.1 11.3-12.5 10.9-6.4-.4-11.3-6.1-10.9-12.5.4-6.4 6.1-11.3 12.5-10.9 6.5.4 11.5 6 10.9 12.5zM559.9 1943.4l1.5 23.4 23.4-1.5c13-.9 22.7-12 21.9-25-.9-13-12-22.7-25-21.9s-22.8 12-21.8 25zm22.6-13.3c6.4-.4 12 4.5 12.5 10.9.4 6.4-4.5 12-10.9 12.5-6.4.4-12-4.5-12.5-10.9-.6-6.5 4.4-12.2 10.9-12.5zM553.5 1885.4c-13-13-34-13-47 0s-13 34 0 47l23.4 23.4 23.4-23.4c13.2-13 13.2-34 .2-47zm-11.8 35.2c-6.4 6.4-17 6.4-23.4 0-6.4-6.4-6.4-17 0-23.4 6.4-6.4 17-6.4 23.4 0 6.6 6.4 6.6 17 0 23.4zM570.8 1994.3c-22.6-22.6-59-22.6-81.6 0-22.6 22.6-22.6 59 0 81.6l40.6 40.6 40.6-40.6c23-22.6 23-59 .4-81.6zm-20.5 61.1c-11.1 11.1-29.5 11.1-40.6 0-11.1-11.1-11.1-29.5 0-40.6 11.1-11.1 29.5-11.1 40.6 0 11.5 11.1 11.5 29.5 0 40.6zM739.5 1956.7c-13-.9-24.1 8.9-25 21.9s8.9 24.1 21.9 25l23.4 1.5 1.5-23.4c.9-13-8.9-24.2-21.8-25zm10.1 24.2c-.4 6.4-6.1 11.3-12.5 10.9-6.4-.4-11.3-6.1-10.9-12.5.4-6.4 6.1-11.3 12.5-10.9 6.5.4 11.4 6 10.9 12.5zM866 2085.3l-16.7 2.5 12 11.8-16.8-1.4 9 14.3-16-5.3 5.4 16-14.4-8.9 1.6 16.8-11.9-11.9-2.3 16.7-8.9-14.4-6.1 15.8-5.3-16-9.6 13.9-1.5-16.8-12.5 11.3 2.4-16.7-14.8 8.1 6.2-15.7-16.2 4.5 9.6-13.8-16.9.6 12.7-11.2-16.6-3.3 14.9-8-15.4-7 16.3-4.4-13.4-10.4 16.9-.5-10.6-13.1 16.6 3.4-7.3-15.3 15.3 7.1-3.5-16.5 13.2 10.5.4-16.9 10.5 13.2 4.2-16.3 7.2 15.3 7.8-15 3.5 16.6 11.1-12.7-.5 16.9 13.8-9.9-4.4 16.4 15.7-6.4-8 14.9 16.7-2.6-11.3 12.6 16.9 1.3-13.9 9.7 16.1 5.2-15.7 6.3z" />
</svg>