<svg version="1.0" xmlns="http://www.w3.org/2000/svg" viewBox="0 0 2460 1751">
	<path fill="#E85D56"
		d="M954.5 1458.2c-8-8-20.8-8-28.8 0s-8 20.8 0 28.8l14.3 14.3 14.3-14.3c8.1-8 8.1-20.8.2-28.8zm-7.2 21.6c-3.9 3.9-10.4 3.9-14.3 0s-3.9-10.4 0-14.3 10.4-3.9 14.3 0c4 3.9 4 10.3 0 14.3zM1567.9 1491.5c-8-8-20.8-8-28.8 0s-8 20.8 0 28.8l14.3 14.3 14.3-14.3c8.1-8 8.1-20.9.2-28.8zm-7.2 21.5c-3.9 3.9-10.4 3.9-14.3 0-3.9-3.9-3.9-10.4 0-14.3s10.4-3.9 14.3 0c4 3.9 4 10.4 0 14.3zM874.9 1506.2l-16.7 2.5 12 11.8-16.8-1.4 9 14.3-16-5.3 5.4 16-14.4-8.9 1.6 16.8-11.9-11.9-2.3 16.7-8.9-14.4-6.1 15.8-5.3-16-9.6 13.9-1.5-16.8-12.5 11.3 2.4-16.7-14.8 8.1 6.2-15.7-16.2 4.5 9.6-13.8-16.9.6 12.7-11.2-16.6-3.3 14.9-8-15.4-7 16.3-4.4-13.4-10.4 16.9-.5-10.6-13.1 16.6 3.4-7.3-15.3 15.3 7.1-3.5-16.5 13.2 10.5.4-16.9 10.5 13.2 4.2-16.3 7.2 15.3 7.8-15 3.5 16.6 11.1-12.7-.5 16.9 13.8-9.9-4.4 16.4 15.7-6.4-8 14.9 16.7-2.6L857 1475l16.9 1.3-13.9 9.7 16.1 5.2-15.7 6.3zM1731.7 1566l-16.7 2.5 12 11.8-16.8-1.4 9 14.3-16-5.3 5.4 16-14.4-8.9 1.6 16.8-11.9-11.9-2.3 16.7-8.9-14.4-6.1 15.8-5.3-16-9.6 13.9-1.5-16.8-12.5 11.3 2.4-16.7-14.8 8.1 6.2-15.7-16.2 4.5 9.6-13.8-16.9.6 12.7-11.2-16.6-3.3 14.9-8-15.4-7 16.3-4.4-13.4-10.4 16.9-.5-10.6-13.1 16.6 3.4-7.3-15.3 15.3 7.1-3.5-16.5 13.2 10.5.4-16.9 10.5 13.2 4.2-16.3 7.2 15.3 7.8-15 3.5 16.6 11.1-12.7-.5 16.9 13.8-9.9-4.4 16.4 15.7-6.4-8 14.9 16.7-2.6-11.3 12.6 16.9 1.3-13.9 9.7 16.1 5.2-15.7 6.3z" />
	<path fill="none" stroke="#E85D56" stroke-width="4.747" stroke-miterlimit="10"
		d="M1553.5 1550.5c-101 21.6-204.3 30.8-307.4 26.5-104-4.8-207-25.4-304.6-61.4" /></svg>