<svg version="1.0" xmlns="http://www.w3.org/2000/svg" viewBox="0 0 36.6 144.2">
  <path fill="none" stroke="#1D1D1B" stroke-width="2.871" stroke-linejoin="bevel"
    d="M5.3 28.6L19.1 3.4l12.6 24.1M18.5 22.6v42.8" />
  <path fill="#E85D56"
    d="M32.1 68.2l-3.6.5 2.6 2.6-3.7-.3 2 3.1-3.5-1.2 1.2 3.5-3.1-1.9.3 3.7-2.6-2.6-.5 3.6-1.9-3.1-1.4 3.4-1.1-3.5-2.1 3-.4-3.6-2.7 2.4.5-3.6L8.9 76l1.4-3.5-3.6 1 2.1-3-3.7.1 2.8-2.4-3.6-.7 3.2-1.8-3.3-1.5 3.5-1L4.8 61l3.7-.1L6.2 58l3.6.7-1.6-3.3 3.4 1.6-.8-3.6 2.9 2.2.1-3.6 2.3 2.8.9-3.5 1.5 3.3 1.7-3.3.8 3.7 2.4-2.8-.1 3.7 3-2.2-.9 3.6 3.4-1.4-1.7 3.3 3.6-.6-2.5 2.7 3.7.3-3 2.1 3.5 1.2-3.4 1.4zM32.1 100.5l-3.6.6 2.6 2.5-3.7-.3 2 3.2-3.5-1.2 1.2 3.5-3.1-1.9.3 3.6-2.6-2.6-.5 3.7-1.9-3.2-1.4 3.5-1.1-3.5-2.1 3-.4-3.7-2.7 2.5.5-3.6-3.2 1.7 1.4-3.4-3.6 1 2.1-3-3.7.1 2.8-2.4-3.6-.8 3.2-1.7-3.3-1.5 3.5-1-2.9-2.3 3.7-.1-2.3-2.8 3.6.7-1.6-3.3 3.4 1.5-.8-3.6 2.9 2.3.1-3.7 2.3 2.9.9-3.6 1.5 3.4 1.7-3.3.8 3.6 2.4-2.7-.1 3.7 3-2.2-.9 3.6 3.4-1.4-1.7 3.2 3.6-.5-2.5 2.7 3.7.3-3 2.1 3.5 1.1-3.4 1.4zM32.3 132.9l-3.6.5 2.6 2.6-3.6-.3 1.9 3.1-3.5-1.1 1.2 3.5-3.1-2 .3 3.7-2.6-2.6-.5 3.6-1.9-3.1-1.4 3.4-1.1-3.5-2.1 3.1-.3-3.7-2.8 2.5.5-3.7-3.2 1.8 1.4-3.4-3.6 1 2.1-3.1-3.7.2 2.8-2.5-3.6-.7 3.2-1.7-3.3-1.6 3.5-.9-2.9-2.3 3.7-.1-2.3-2.9 3.6.8-1.6-3.4 3.4 1.6-.8-3.6 2.9 2.3.1-3.7 2.3 2.9.9-3.6 1.5 3.4 1.7-3.3.8 3.6 2.4-2.8-.1 3.7 3-2.1-.9 3.5 3.4-1.4-1.7 3.3 3.6-.6-2.5 2.8 3.7.3-3 2.1 3.5 1.1-3.4 1.4z" />
  </svg>