<?xml version="1.0" encoding="utf-8"?>
<!-- Generator: Adobe Illustrator 24.2.3, SVG Export Plug-In . SVG Version: 6.00 Build 0)  -->
<svg version="1.0" id="Layer_1" xmlns="http://www.w3.org/2000/svg" xmlns:xlink="http://www.w3.org/1999/xlink" x="0px" y="0px"
	 viewBox="0 0 76.3 143.6" enable-background="new 0 0 76.3 143.6" xml:space="preserve">
<path fill="#4143E7" d="M7.4,107.8c6,13.1,21.3,18.7,34.4,12.7c13.1-6,18.7-21.3,12.7-34.4L43.7,62.6L20.3,73.4
	C7,79.4,1.4,94.7,7.4,107.8z M25.5,85.1c6.4-2.9,14.1-0.1,17.1,6.3c2.9,6.4,0.1,14.1-6.3,17.1c-6.4,2.9-14.1,0.1-17.1-6.3
	C16.1,95.7,18.9,88.1,25.5,85.1z"/>
<path fill="none" stroke="#1D1D1B" stroke-width="2.8707" stroke-linejoin="bevel" d="M49,19.9l23.1-17L73.4,30"/>
<line fill="none" stroke="#1D1D1B" stroke-width="2.8707" stroke-linejoin="bevel" x1="63.5" y1="20" x2="45.5" y2="58.8"/>
</svg>
