<svg version="1.0" xmlns="http://www.w3.org/2000/svg" viewBox="0 0 1000 1000">
  <g fill="none" stroke="currentColor" stroke-width="2.835" stroke-miterlimit="10">
    <path d="M-100.6 1071.7h.1" />
    <path stroke-dasharray=".283 11.337" d="M-89.2 1070.7l1233-107.9" />
    <path d="M1149.5 962.3h.1" />
  </g>
  <g fill="none" stroke="currentColor" stroke-width="2.835" stroke-miterlimit="10">
    <path d="M-100.6 980.9l.1-.1" />
    <path stroke-dasharray=".283 11.337" d="M-89.2 979.9l1233-107.9" />
    <path d="M1149.5 871.5h.1" />
  </g>
  <g fill="none" stroke="currentColor" stroke-width="2.835" stroke-miterlimit="10">
    <path d="M-100.6 890h.1" />
    <path stroke-dasharray=".283 11.337" d="M-89.2 889l1233-107.9" />
    <path d="M1149.5 780.7l.1-.1" />
  </g>
  <g fill="none" stroke="currentColor" stroke-width="2.835" stroke-miterlimit="10">
    <path d="M-100.6 799.2h.1" />
    <path stroke-dasharray=".283 11.337" d="M-89.2 798.2l1233-107.9" />
    <path d="M1149.5 689.8h.1" />
  </g>
  <g fill="none" stroke="currentColor" stroke-width="2.835" stroke-miterlimit="10">
    <path d="M-100.6 708.4l.1-.1" />
    <path stroke-dasharray=".283 11.337" d="M-89.2 707.4l1233-107.9" />
    <path d="M1149.5 599h.1" />
  </g>
  <g fill="none" stroke="currentColor" stroke-width="2.835" stroke-miterlimit="10">
    <path d="M-100.6 617.5h.1" />
    <path stroke-dasharray=".283 11.337" d="M-89.2 616.5l1233-107.9" />
    <path d="M1149.5 508.2l.1-.1" />
  </g>
  <g fill="none" stroke="currentColor" stroke-width="2.835" stroke-miterlimit="10">
    <path d="M-100.6 526.7h.1" />
    <path stroke-dasharray=".283 11.337" d="M-89.2 525.7l1233-107.9" />
    <path d="M1149.5 417.3h.1" />
  </g>
  <g fill="none" stroke="currentColor" stroke-width="2.835" stroke-miterlimit="10">
    <path d="M-100.6 435.9l.1-.1" />
    <path stroke-dasharray=".283 11.337" d="M-89.2 434.9l1233-107.9" />
    <path d="M1149.5 326.5h.1" />
  </g>
  <g fill="none" stroke="currentColor" stroke-width="2.835" stroke-miterlimit="10">
    <path d="M-100.6 345h.1" />
    <path stroke-dasharray=".283 11.337" d="M-89.2 344l1233-107.9" />
    <path d="M1149.5 235.7l.1-.1" />
  </g>
  <g fill="none" stroke="currentColor" stroke-width="2.835" stroke-miterlimit="10">
    <path d="M-100.6 254.2h.1" />
    <path stroke-dasharray=".283 11.337" d="M-89.2 253.2l1233-107.9" />
    <path d="M1149.5 144.8h.1" />
  </g>
  <g fill="none" stroke="currentColor" stroke-width="2.835" stroke-miterlimit="10">
    <path d="M-100.6 163.4l.1-.1" />
    <path stroke-dasharray=".283 11.337" d="M-89.2 162.4l1233-107.9" />
    <path d="M1149.5 54h.1" />
  </g>
  <g fill="none" stroke="currentColor" stroke-width="2.835" stroke-miterlimit="10">
    <path d="M-100.6 72.5h.1" />
    <path stroke-dasharray=".283 11.337" d="M-89.2 71.5l1233-107.9" />
    <path d="M1149.5-36.8l.1-.1" />
  </g>
  <g fill="none" stroke="currentColor" stroke-width="2.835" stroke-miterlimit="10">
    <path d="M1033.4 1097.1l-.1-.1" />
    <path stroke-dasharray=".283 11.337" d="M1032.4 1085.7l-107.9-1233" />
    <path d="M924-153v-.1" />
  </g>
  <g fill="none" stroke="currentColor" stroke-width="2.835" stroke-miterlimit="10">
    <path d="M942.5 1097.1v-.1" />
    <path stroke-dasharray=".283 11.337" d="M941.5 1085.7l-107.9-1233" />
    <path d="M833.2-153l-.1-.1" />
  </g>
  <g fill="none" stroke="currentColor" stroke-width="2.835" stroke-miterlimit="10">
    <path d="M851.7 1097.1v-.1" />
    <path stroke-dasharray=".283 11.337" d="M850.7 1085.7l-107.9-1233" />
    <path d="M742.3-153v-.1" />
  </g>
  <g fill="none" stroke="currentColor" stroke-width="2.835" stroke-miterlimit="10">
    <path d="M760.9 1097.1l-.1-.1" />
    <path stroke-dasharray=".283 11.337" d="M759.9 1085.7L652-147.3" />
    <path d="M651.5-153v-.1" />
  </g>
  <g fill="none" stroke="currentColor" stroke-width="2.835" stroke-miterlimit="10">
    <path d="M670 1097.1v-.1" />
    <path stroke-dasharray=".283 11.337" d="M669 1085.7l-107.9-1233" />
    <path d="M560.7-153l-.1-.1" />
  </g>
  <g fill="none" stroke="currentColor" stroke-width="2.835" stroke-miterlimit="10">
    <path d="M579.2 1097.1v-.1" />
    <path stroke-dasharray=".283 11.337" d="M578.2 1085.7l-107.9-1233" />
    <path d="M469.8-153v-.1" />
  </g>
  <g fill="none" stroke="currentColor" stroke-width="2.835" stroke-miterlimit="10">
    <path d="M488.4 1097.1l-.1-.1" />
    <path stroke-dasharray=".283 11.337" d="M487.4 1085.7l-107.9-1233" />
    <path d="M379-153v-.1" />
  </g>
  <g fill="none" stroke="currentColor" stroke-width="2.835" stroke-miterlimit="10">
    <path d="M397.5 1097.1v-.1" />
    <path stroke-dasharray=".283 11.337" d="M396.5 1085.7l-107.9-1233" />
    <path d="M288.2-153l-.1-.1" />
  </g>
  <g fill="none" stroke="currentColor" stroke-width="2.835" stroke-miterlimit="10">
    <path d="M306.7 1097.1v-.1" />
    <path stroke-dasharray=".283 11.337" d="M305.7 1085.7l-107.9-1233" />
    <path d="M197.3-153v-.1" />
  </g>
  <g fill="none" stroke="currentColor" stroke-width="2.835" stroke-miterlimit="10">
    <path d="M215.9 1097.1l-.1-.1" />
    <path stroke-dasharray=".283 11.337" d="M214.9 1085.7L107-147.3" />
    <path d="M106.5-153v-.1" />
  </g>
  <g fill="none" stroke="currentColor" stroke-width="2.835" stroke-miterlimit="10">
    <path d="M125 1097.1v-.1" />
    <path stroke-dasharray=".283 11.337" d="M124 1085.7L16.1-147.3" />
    <path d="M15.7-153l-.1-.1" />
  </g>
  <g fill="none" stroke="currentColor" stroke-width="2.835" stroke-miterlimit="10">
    <path d="M34.2 1097.1v-.1" />
    <path stroke-dasharray=".283 11.337" d="M33.2 1085.7l-107.9-1233" />
    <path d="M-75.2-153v-.1" />
  </g>
</svg>