<svg version="1.0" xmlns="http://www.w3.org/2000/svg" viewBox="0 0 298.7 117.2">
  <path fill="none" stroke="#E85D56" stroke-miterlimit="10"
    d="M226.5 25.3c-20.3 7.8-41.5 13.1-63.1 15.6-21.8 2.4-43.9 1.5-65.4-2.8" />
  <path fill="#E85D56"
    d="M12.5 73.8c0 19.7 15.9 35.7 35.7 35.7s35.7-15.9 35.7-35.7V38.3H48.3c-19.9-.1-35.8 15.8-35.8 35.5zm35.6-17.7c9.7 0 17.8 8 17.8 17.8 0 9.7-8 17.8-17.8 17.8-9.7 0-17.8-8-17.8-17.8-.1-10 8-18 17.8-17.8zM242.5 10.6c-.8-.8-2.2-.8-3 0-.8.8-.8 2.2 0 3l1.5 1.5 1.5-1.5c.9-.8.9-2.1 0-3zm-.7 2.3c-.4.4-1.1.4-1.5 0-.4-.4-.4-1.1 0-1.5.4-.4 1.1-.4 1.5 0 .4.4.4 1.1 0 1.5zM223.7 17.8c-.8-.8-2.2-.8-3 0s-.8 2.2 0 3l1.5 1.5 1.5-1.5c.8-.8.8-2.2 0-3zm-.8 2.2c-.4.4-1.1.4-1.5 0s-.4-1.1 0-1.5 1.1-.4 1.5 0c.5.4.5 1.1 0 1.5zM234.1 27.7c-.8-.8-2.2-.8-3 0-.8.8-.8 2.2 0 3l1.5 1.5 1.5-1.5c.9-.8.9-2.2 0-3zm-.7 2.2c-.4.4-1.1.4-1.5 0-.4-.4-.4-1.1 0-1.5.4-.4 1.1-.4 1.5 0 .4.5.4 1.1 0 1.5zM236.9 12.4c-2.4-2.4-6.2-2.4-8.6 0-2.4 2.4-2.4 6.2 0 8.6l4.3 4.3 4.3-4.3c2.4-2.4 2.4-6.2 0-8.6zm-2.2 6.4c-1.2 1.2-3.1 1.2-4.3 0-1.2-1.2-1.2-3.1 0-4.3s3.1-1.2 4.3 0c1.2 1.2 1.2 3.2 0 4.3z" />
  </svg>