<svg version="1.0" xmlns="http://www.w3.org/2000/svg" viewBox="0 0 2460 1751">
	<path fill="#FFF"
		d="M809.4 1541.7c-7.5-7.5-19.6-7.5-27.1 0s-7.5 19.6 0 27.1l13.5 13.5 13.5-13.5c7.5-7.5 7.5-19.6.1-27.1zm-6.8 20.3c-3.7 3.7-9.8 3.7-13.5 0s-3.7-9.8 0-13.5 9.8-3.7 13.5 0 3.8 9.8 0 13.5zM803.4 1617.8c7.5 7.5 19.6 7.5 27.1 0s7.5-19.6 0-27.1l-13.5-13.5-13.5 13.5c-7.5 7.5-7.5 19.6-.1 27.1zm6.8-20.3c3.7-3.7 9.8-3.7 13.5 0s3.7 9.8 0 13.5-9.8 3.7-13.5 0-3.7-9.8 0-13.5zM830.5 1498.7c-7.5-7.5-19.6-7.5-27.1 0s-7.5 19.6 0 27.1l13.5 13.5 13.5-13.5c7.6-7.5 7.6-19.6.1-27.1zm-6.8 20.3c-3.7 3.7-9.8 3.7-13.5 0s-3.7-9.8 0-13.5 9.8-3.7 13.5 0c3.8 3.7 3.8 9.8 0 13.5zM761.1 1617.8c7.5 7.5 19.6 7.5 27.1 0s7.5-19.6 0-27.1l-13.5-13.5-13.5 13.5c-7.6 7.5-7.6 19.6-.1 27.1zm6.8-20.3c3.7-3.7 9.8-3.7 13.5 0s3.7 9.8 0 13.5-9.8 3.7-13.5 0c-3.8-3.7-3.8-9.8 0-13.5zM851.7 1541.7c-7.5-7.5-19.6-7.5-27.1 0s-7.5 19.6 0 27.1l13.5 13.5 13.5-13.5c7.6-7.5 7.6-19.6.1-27.1zm-6.8 20.3c-3.7 3.7-9.8 3.7-13.5 0s-3.7-9.8 0-13.5 9.8-3.7 13.5 0c3.8 3.7 3.8 9.8 0 13.5zM845.8 1617.8c7.5 7.5 19.6 7.5 27.1 0s7.5-19.6 0-27.1l-13.5-13.5-13.5 13.5c-7.6 7.5-7.6 19.6-.1 27.1zm6.8-20.3c3.7-3.7 9.8-3.7 13.5 0s3.7 9.8 0 13.5-9.8 3.7-13.5 0c-3.8-3.7-3.8-9.8 0-13.5zM1781.9 1426.6l-16.7 2.5 12 11.8-16.8-1.4 9 14.3-16-5.3 5.4 16-14.4-8.9 1.6 16.8-11.9-11.9-2.3 16.7-8.9-14.4-6.1 15.8-5.3-16-9.6 13.9-1.5-16.8-12.5 11.3 2.4-16.7-14.8 8.1 6.2-15.7-16.2 4.5 9.6-13.8-16.9.6 12.7-11.2-16.6-3.3 14.9-8-15.4-7 16.3-4.4-13.4-10.4 16.9-.5-10.6-13.1 16.6 3.4-7.3-15.3 15.3 7.1-3.5-16.5 13.2 10.5.4-16.9 10.5 13.2 4.2-16.3 7.2 15.3 7.8-15 3.5 16.6 11.1-12.7-.5 16.9 13.8-9.9-4.4 16.4 15.7-6.4-8 14.9 16.7-2.6-11.3 12.6 16.9 1.3-13.9 9.7 16.1 5.2-15.7 6.3zM1642.3 1505.8l-2 .3 1.4 1.4-2-.2 1.1 1.7-1.9-.6.6 1.9-1.7-1.1.2 2-1.4-1.4-.3 2-1-1.7-.8 1.8-.6-1.9-1.1 1.7-.2-2-1.5 1.3.3-1.9-1.7.9.7-1.8-1.9.5 1.1-1.6h-2l1.5-1.3-2-.4 1.8-.9-1.8-.9 1.9-.5-1.6-1.2 2-.1-1.2-1.5 1.9.4-.8-1.8 1.8.8-.4-1.9 1.5 1.2.1-2 1.2 1.6.5-2 .9 1.8.9-1.7.4 1.9 1.3-1.5v2l1.6-1.1-.5 1.9 1.8-.8-.9 1.8 2-.3-1.4 1.5 2 .1-1.6 1.2 1.9.6-1.9.7zM1658.1 1473.6l-5.1.7 3.6 3.6-5-.5 2.7 4.3-4.9-1.6 1.7 4.9-4.4-2.7.5 5.1-3.6-3.6-.7 5-2.7-4.3-1.8 4.7-1.6-4.8-2.9 4.2-.4-5.1-3.8 3.5.7-5.1-4.5 2.5 1.9-4.8-4.9 1.4 2.9-4.2-5.1.2 3.8-3.4-5-1 4.5-2.4-4.6-2.1 4.9-1.3-4-3.2 5.1-.1-3.2-4 5 1-2.2-4.6 4.6 2.2-1.1-5 4 3.2.1-5.1 3.2 4 1.3-5 2.1 4.6 2.4-4.5 1.1 5 3.3-3.8-.1 5.1 4.1-3-1.3 4.9 4.7-1.9-2.4 4.5 5.1-.8-3.4 3.8 5 .4-4.1 3 4.8 1.5-4.7 1.9zM1732.1 1323.6l-5.1.7 3.6 3.6-5-.5 2.7 4.3-4.9-1.6 1.7 4.9-4.4-2.7.5 5.1-3.6-3.6-.7 5-2.7-4.3-1.8 4.7-1.6-4.8-2.9 4.2-.4-5.1-3.8 3.5.7-5.1-4.4 2.5 1.8-4.8-4.9 1.4 2.9-4.2-5.1.2 3.8-3.4-5-1 4.5-2.4-4.6-2.1 4.9-1.3-4-3.2 5.1-.1-3.2-4 5 1-2.2-4.6 4.6 2.2-1.1-5 4 3.2.1-5.1 3.2 4 1.3-5 2.1 4.6 2.4-4.5 1.1 5 3.3-3.8-.1 5.1 4.1-3-1.3 4.9 4.7-1.9-2.4 4.5 5.1-.8-3.4 3.8 5.1.4-4.2 3 4.8 1.5-4.7 1.9zM1646.5 1366.2l-2 .2 1.4 1.4-2-.1 1.1 1.7-1.9-.7.7 1.9-1.7-1 .1 2-1.4-1.4-.2 1.9-1.1-1.7-.7 1.9-.6-1.9-1.2 1.7-.1-2-1.5 1.3.3-2-1.8 1 .7-1.9-1.9.6 1.2-1.7-2 .1 1.5-1.3-2-.4 1.8-1-2-.8 2-.5-1.5-1.2 2-.1-1.3-1.6 2 .5-.9-1.9 1.7.9-.3-2 1.6 1.3v-2l1.3 1.5.4-1.9.9 1.8 1-1.8.4 2 1.3-1.5-.1 2 1.5-1.2-.4 2 1.9-.8-1 1.8 2-.3-1.3 1.5 2 .1-1.7 1.2 1.9.6-1.8.7zM1739.9 1294l-2 .3 1.5 1.4-2-.2 1 1.7-1.8-.6.6 1.9-1.8-1.1.3 2-1.5-1.4-.3 2-1-1.7-.7 1.9-.6-1.9-1.2 1.6-.2-2-1.4 1.4.3-2-1.7 1 .7-1.9-1.9.5 1-1.6-2 .1 1.6-1.4-1.9-.3 1.7-1-1.8-.8 1.9-.5-1.5-1.3h2l-1.3-1.6 2 .4-1-1.8 1.9.9-.4-2 1.5 1.2v-2l1.3 1.6.5-1.9.9 1.8.8-1.8.5 2 1.3-1.5v2l1.6-1.2-.6 1.9 2-.7-1 1.7 2-.3-1.3 1.5 1.9.2-1.6 1.1 1.9.6-1.9.8zM1608.4 1463.5l-2 .3 1.4 1.4-2-.1 1.1 1.7-1.9-.7.6 1.9-1.7-1 .2 2-1.4-1.5-.3 2-1-1.7-.7 1.9-.7-1.9-1.1 1.6-.2-1.9-1.5 1.3.3-2-1.7 1 .7-1.9-1.9.6 1.1-1.7-2 .1 1.5-1.3-1.9-.4 1.7-1-1.8-.8 1.9-.5-1.5-1.3h2l-1.3-1.6 2 .4-.9-1.8 1.8.9-.4-2 1.6 1.3v-2l1.2 1.5.5-1.9.9 1.8.9-1.8.4 2 1.3-1.5v2l1.6-1.2-.5 2 1.8-.8-.9 1.8 2-.3-1.4 1.4 2 .2-1.6 1.2 1.9.6-1.8.7z" />
	</svg>