<svg version="1.0" xmlns="http://www.w3.org/2000/svg" viewBox="0 0 100 100">
  <g fill="#F5F5F5">
    <path d="M28.4 9h43.2v27.1H28.4zM28.4 69.9h43.2V83H28.4z" />
    <circle cx="90.7" cy="33.7" r="1.4" />
    <path
      d="M74.4 28v10.9H25.6V28H4v44h21.6v-4.9h48.8V72H96V28H74.4zm6.1 7.6c-1 0-1.9-.8-1.9-1.9 0-1 .8-1.9 1.9-1.9 1 0 1.9.8 1.9 1.9-.1 1.1-.9 1.9-1.9 1.9zm5.1 0c-1 0-1.9-.8-1.9-1.9 0-1 .8-1.9 1.9-1.9 1 0 1.9.8 1.9 1.9-.1 1.1-.9 1.9-1.9 1.9zm5.1.5c-1.3 0-2.4-1.1-2.4-2.4s1.1-2.4 2.4-2.4 2.4 1.1 2.4 2.4-1.1 2.4-2.4 2.4z" />
  </g>
</svg>