<svg version="1.0" xmlns="http://www.w3.org/2000/svg" viewBox="0 0 297 375">
	<path fill="#FFF"
		d="M291.2 284.4l-27.3 4.1 19.6 19.3-27.4-2.3 14.7 23.4-26.2-8.6 8.8 26.1-23.5-14.5 2.6 27.5-19.5-19.5-3.7 27.3-14.6-23.5-10 25.8-8.7-26.2-15.7 22.8-2.4-27.5-20.5 18.5 3.9-27.3-24.2 13.2 10.2-25.7-26.5 7.4 15.7-22.6-27.7 1 20.8-18.3-27.2-5.4 24.4-13.1-25.2-11.5 26.7-7.2-21.9-17 27.6-.8-17.3-21.5 27.1 5.6-11.9-25 25 11.6-5.7-27 21.6 17.2.6-27.7 17.2 21.6 6.9-26.7 11.8 25.1 12.8-24.6 5.7 27.2 18.1-20.8-.8 27.7 22.6-16.2-7.2 26.8 25.7-10.5-13.1 24.4 27.3-4.2-18.5 20.6 27.7 2.1-22.7 15.9 26.3 8.5-25.7 10.3z" />
	<path fill="#FFF"
		d="M285.6 192.5l-12 1.8 8.6 8.4-12-1 6.4 10.2-11.4-3.8 3.9 11.5-10.3-6.4 1.1 12-8.5-8.5-1.6 11.9-6.4-10.2-4.4 11.2-3.8-11.4-6.8 9.9-1.1-12-8.9 8.1 1.7-11.9-10.6 5.8 4.4-11.3-11.5 3.3 6.8-9.9-12.1.4 9.1-8-11.8-2.3 10.6-5.8-11-5 11.7-3.1-9.6-7.4 12.1-.4-7.6-9.4 11.8 2.5-5.2-11 11 5.1-2.5-11.8 9.4 7.5.3-12.1 7.5 9.5 3-11.7 5.1 11 5.6-10.8 2.5 11.9 7.9-9.1-.3 12.1 9.9-7.1-3.2 11.7 11.2-4.5-5.7 10.6 11.9-1.8-8 9 12.1.9-10 6.9 11.5 3.8-11.2 4.5z" />
	<path fill="#FFF"
		d="M277.2 142.4l-6.8 1 4.9 4.8-6.9-.6 3.7 5.9-6.5-2.2 2.2 6.5-5.9-3.6.7 6.8-4.9-4.8-.9 6.8-3.6-5.9-2.5 6.5-2.2-6.6-3.9 5.7-.6-6.8-5.1 4.6 1-6.8-6.1 3.3 2.6-6.4-6.6 1.8 3.9-5.6-6.9.2 5.2-4.5-6.8-1.4 6.1-3.2-6.3-2.9 6.6-1.8-5.4-4.2 6.9-.2-4.4-5.4 6.8 1.4-3-6.2 6.3 2.9-1.5-6.8 5.4 4.3.2-6.9 4.3 5.4 1.7-6.6 2.9 6.2 3.2-6.1 1.4 6.8 4.5-5.2-.2 6.9 5.7-4.1-1.8 6.7 6.4-2.6-3.3 6.1 6.8-1.1-4.6 5.2 6.9.5-5.7 3.9 6.6 2.2-6.4 2.5zM292.4 224.4l-6.8 1 4.9 4.8-6.9-.6 3.7 5.9-6.5-2.2 2.2 6.5-5.9-3.6.7 6.8-4.9-4.8-.9 6.8-3.6-5.9-2.5 6.5-2.2-6.6-3.9 5.7-.6-6.8-5.1 4.6 1-6.8-6 3.3 2.5-6.4-6.6 1.8 3.9-5.6-6.9.2 5.2-4.5-6.8-1.4 6.1-3.2-6.3-2.9 6.7-1.8-5.5-4.2 6.9-.2-4.3-5.4 6.7 1.4-2.9-6.2 6.2 2.9-1.4-6.8 5.3 4.3.2-6.9 4.3 5.4 1.7-6.6 2.9 6.2 3.2-6.1 1.4 6.8 4.5-5.2-.2 6.9 5.7-4.1-1.8 6.7 6.4-2.6-3.3 6.1 6.8-1.1-4.6 5.2 6.9.5-5.7 3.9 6.6 2.2-6.4 2.5zM137 319l-12 1.8 8.6 8.4-12-1 6.4 10.2-11.4-3.8 3.9 11.5-10.3-6.4 1.1 12-8.5-8.5-1.6 11.9-6.4-10.2-4.4 11.2-3.8-11.4-6.8 9.9-1.1-12-8.9 8.1 1.7-11.9-10.6 5.8 4.4-11.3-11.5 3.3 6.8-9.9-12.1.4 9.1-8-11.8-2.3 10.6-5.8-11-5 11.6-3.1-9.5-7.4 12.1-.4-7.6-9.4 11.8 2.5-5.2-11 11 5.1-2.5-11.8 9.4 7.5.3-12.1 7.5 9.5 3-11.7 5.1 11 5.6-10.8 2.5 11.9 7.9-9.1-.3 12.1 9.9-7.1-3.2 11.8 11.2-4.6-5.7 10.6 11.9-1.8-8 9 12 .9-9.9 6.9 11.5 3.8-11.2 4.5zM132.8 92.3l-8.1 1.2 5.8 5.7-8.1-.7 4.4 6.9-7.7-2.6 2.6 7.7-6.9-4.3.7 8.1-5.7-5.7-1.1 8-4.3-6.9-2.9 7.6-2.6-7.7-4.6 6.7-.7-8.1-6 5.4 1.2-8-7.1 3.9 2.9-7.5-7.8 2.1 4.7-6.6-8.2.3 6.1-5.4-7.9-1.6 7.1-3.8-7.4-3.4 7.9-2.1-6.5-5 8.1-.2-5.1-6.3 8 1.6-3.5-7.3 7.4 3.4-1.7-8 6.3 5.1.2-8.1 5.1 6.3 2-7.8 3.4 7.3 3.8-7.2 1.7 8 5.3-6.1-.2 8.1 6.6-4.7-2.1 7.8 7.5-3-3.8 7.1 8-1.2-5.4 6 8.1.7-6.7 4.6 7.7 2.5-7.5 3z" />
</svg>