<svg version="1.0" xmlns="http://www.w3.org/2000/svg" viewBox="0 0 270 375">
	<path fill="#E85D56"
		d="M217 217.8l-27.3 4.1 19.6 19.3-27.4-2.3 14.7 23.4-26.2-8.6 8.8 26.2-23.5-14.6 2.6 27.5-19.5-19.5-3.7 27.3-14.6-23.5-10 25.8-8.7-26.2-15.7 22.8-2.4-27.5-20.5 18.5 3.9-27.3-24.2 13.2 10.2-25.7-26.5 7.4 15.7-22.6-27.7 1 20.8-18.3-27.2-5.4 24.4-13.1-25.2-11.5 26.7-7.2-21.9-17 27.6-.8-17.3-21.5 27.1 5.6-11.9-25 25 11.6-5.7-27 21.6 17.2.6-27.7L96.4 118l6.9-26.7 11.8 25.1 12.8-24.6 5.7 27.2 18.1-20.8-.8 27.7 22.6-16.2-7.2 26.8L192 126l-13.1 24.4 27.3-4.2-18.5 20.6 27.7 2.1-22.7 15.9 26.3 8.5-25.7 10.3z" />
	<path fill="#E85D56"
		d="M96.3 345.9c8 8 20.8 8 28.8 0s8-20.8 0-28.8l-14.3-14.3-14.3 14.3c-8.2 8-8.2 20.8-.2 28.8zm7.2-21.6c3.9-3.9 10.4-3.9 14.3 0 3.9 3.9 3.9 10.4 0 14.3-3.9 3.9-10.4 3.9-14.3 0-4.1-3.9-4.1-10.3 0-14.3zM214.3 89.4c0-11.3-9.1-20.4-20.4-20.4-11.3 0-20.4 9.1-20.4 20.4v20.2h20.2c11.5.2 20.6-8.9 20.6-20.2zm-20.4 10.2c-5.5 0-10.1-4.6-10.1-10.1s4.6-10.1 10.1-10.1S204 84 204 89.5c.2 5.6-4.4 10.2-10.1 10.1zM68.3 35.6C53.7 31 38.3 39 33.7 53.7s3.5 30 18.1 34.6L78 96.4l8.2-26.1c4.7-14.8-3.3-30.2-17.9-34.7zM73.2 66c-2.2 7.1-10 11.2-17.2 9-7.1-2.2-11.2-10-9-17.2 2.2-7.1 10-11.2 17.2-9 7.4 2.1 11.4 9.8 9 17.2z" />
	</svg>