<svg version="1.0" xmlns="http://www.w3.org/2000/svg" viewBox="0 0 267 375">
	<path fill="#5665e8"
		d="M115.1 302.5c19.6 19.6 51 19.6 70.6 0s19.6-51 0-70.6l-35-35-35 35c-20.2 19.7-20.2 51-.6 70.6zm17.6-52.9c9.6-9.6 25.5-9.6 35 0 9.6 9.6 9.6 25.5 0 35-9.6 9.6-25.5 9.6-35 0-10-9.5-10-25.2 0-35zM170 48.9c0-18.1-14.5-32.6-32.6-32.6s-32.6 14.5-32.6 32.6v32.4h32.4c18.3.2 32.8-14.2 32.8-32.4zm-32.6 16.3c-8.8 0-16.2-7.4-16.2-16.2 0-8.8 7.4-16.2 16.2-16.2 8.8 0 16.2 7.4 16.2 16.2.2 9.1-7 16.4-16.2 16.2z" />
	<path fill="#5665e8"
		d="M151.8 328.9c0-12.8-10.3-23.1-23.1-23.1s-23.1 10.3-23.1 23.1v22.9h22.9c13 .2 23.3-10 23.3-22.9zm-23.1 11.6c-6.3 0-11.5-5.2-11.5-11.5s5.2-11.5 11.5-11.5 11.5 5.2 11.5 11.5c.1 6.4-5 11.6-11.5 11.5z" />
	<path fill="#5665e8"
		d="M195.7 329.1c0-12.8-10.3-23.1-23.1-23.1s-23.1 10.3-23.1 23.1V352h22.9c13 .2 23.3-10.1 23.3-22.9zm-23.1 11.5c-6.3 0-11.5-5.2-11.5-11.5s5.2-11.5 11.5-11.5 11.5 5.2 11.5 11.5c.1 6.5-5 11.6-11.5 11.5zM137.6 93.9c-26.6-8.3-54.6 6.3-62.9 32.9s6.3 54.6 32.9 62.9l47.6 14.9 14.9-47.6c8.7-26.8-5.9-54.7-32.5-63.1zm8.9 55.4c-4.1 13-18.3 20.4-31.2 16.4-13-4.1-20.4-18.3-16.4-31.2 4.1-13 18.3-20.4 31.2-16.4 13.5 3.8 20.8 17.8 16.4 31.2z" />
</svg>