<svg version="1.0" xmlns="http://www.w3.org/2000/svg" viewBox="0 0 407 193">
  <path fill="#F5F5F5"
    d="M315.8 114.8l-4.3.6 3.1 3-4.3-.3 2.3 3.7-4.1-1.4 1.3 4.1-3.7-2.3.4 4.4-3-3.1-.6 4.3-2.3-3.7-1.6 4.1-1.3-4.2-2.5 3.6-.4-4.3-3.2 2.9.6-4.3-3.8 2.1 1.6-4.1-4.2 1.2 2.5-3.6-4.4.2 3.3-2.9-4.3-.8 3.9-2.1-4-1.8 4.2-1.1-3.5-2.7 4.4-.1-2.7-3.4 4.2.9-1.8-4 3.9 1.8-.9-4.2 3.4 2.7.1-4.4 2.7 3.4 1.1-4.2 1.8 4 2.1-3.9.9 4.3 2.8-3.3-.1 4.4 3.5-2.6-1.1 4.3 4.1-1.7-2.1 3.8 4.3-.6-2.9 3.2 4.3.4-3.5 2.5 4.1 1.3-4 1.6zM361.1 49.5l-1.9.2 1.3 1.4-1.9-.2 1 1.7-1.8-.6.6 1.8-1.6-1 .2 1.9-1.4-1.4-.2 1.9-1.1-1.6-.6 1.8-.6-1.8-1.1 1.5-.2-1.9-1.4 1.3.2-1.9-1.6.9.7-1.7-1.9.5 1.1-1.6-1.9.1 1.4-1.3-1.9-.4 1.7-.9-1.7-.8 1.8-.5-1.5-1.2h1.9l-1.2-1.5 1.9.4-.8-1.8 1.7.8-.4-1.8 1.5 1.1.1-1.9 1.2 1.5.5-1.8.8 1.7.9-1.7.4 1.9 1.2-1.5v2l1.5-1.2-.5 1.9 1.8-.7-.9 1.7 1.9-.3-1.3 1.4 1.9.2-1.5 1.1 1.8.6-1.8.7zM335.9 76.5l-1.9.3 1.3 1.3-1.9-.2 1 1.7-1.8-.6.6 1.8-1.6-1 .2 1.9-1.4-1.4-.2 1.9-1.1-1.6-.6 1.8-.6-1.8-1.1 1.6-.2-2-1.4 1.3.2-1.9-1.6.9.7-1.7-1.9.5 1.1-1.6-1.9.1 1.4-1.3-1.9-.4 1.7-.9-1.7-.8 1.8-.5-1.5-1.2h1.9l-1.2-1.5 1.9.4-.8-1.8 1.7.8-.4-1.8 1.5 1.2.1-2 1.2 1.5.5-1.8.8 1.7.9-1.7.4 1.9 1.2-1.4v1.9l1.5-1.1-.5 1.8 1.8-.7-.9 1.7 1.9-.3-1.3 1.4 1.9.2-1.5 1.1 1.8.6-1.8.7zM231.6 71.1l-1.3.1.9 1-1.3-.2.7 1.1-1.2-.4.4 1.3-1.1-.7.1 1.3-.9-.9-.2 1.2-.6-1.1-.5 1.2-.4-1.2-.8 1.1-.1-1.3-.9.9.2-1.3-1.2.6.5-1.2-1.2.3.7-1h-1.3l1-.8-1.3-.3 1.1-.6-1.1-.5 1.2-.4-1-.8h1.3l-.8-1 1.2.3-.5-1.2 1.2.5-.3-1.2 1 .8v-1.3l.8 1 .4-1.3.5 1.2.6-1.1.3 1.2.8-.9v1.3l1-.8-.3 1.3 1.2-.5-.6 1.1 1.3-.2-.9 1 1.3.1-1.1.7 1.3.4-1.2.5zM204.9 83.4l-1.3.1.9.9-1.2-.1.6 1.1-1.2-.4.4 1.3-1.1-.7.2 1.3-1-1-.1 1.3-.7-1.1-.5 1.2-.4-1.2-.7 1.1-.1-1.3-1 .9.2-1.3-1.1.6.4-1.2-1.2.3.7-1h-1.3l1-.8-1.3-.3 1.2-.6-1.2-.5 1.2-.4-1-.8h1.3l-.8-1 1.3.3-.6-1.2 1.2.5-.3-1.2 1 .8.1-1.3.8 1 .3-1.3.5 1.2.6-1.1.3 1.2.8-.9v1.3l1.1-.8-.4 1.3 1.2-.5-.6 1.1 1.3-.2-.9 1 1.3.1-1 .7 1.2.4-1.2.5zM193.3 117.4l-1.3.2 1 .9-1.3-.1.7 1.1-1.3-.4.4 1.2-1.1-.7.2 1.3-.9-.9-.2 1.3-.7-1.1-.5 1.2-.4-1.2-.7 1-.1-1.3-1 .9.2-1.3-1.1.6.5-1.2-1.3.4.7-1.1-1.2.1.9-.9-1.2-.2 1.1-.6-1.2-.6 1.3-.3-1.1-.8h1.3l-.8-1 1.3.2-.6-1.2 1.2.6-.3-1.3 1 .8.1-1.3.8 1 .3-1.2.5 1.2.6-1.2.3 1.3.9-1-.1 1.3 1.1-.7-.4 1.2 1.2-.5-.6 1.2 1.3-.2-.9.9 1.3.1-1 .8 1.2.4-1.2.4zM323.1 138.4l-1.3.2.9.9-1.3-.1.7 1.1-1.2-.4.4 1.2-1.1-.7.1 1.3-.9-.9-.1 1.3-.7-1.1-.5 1.2-.4-1.2-.7 1-.2-1.3-.9.9.2-1.3-1.2.6.5-1.2-1.2.4.7-1.1-1.3.1 1-.9-1.3-.2 1.2-.6-1.2-.6 1.2-.3-1-.8h1.3l-.8-1 1.3.2-.6-1.2 1.2.6-.3-1.3 1 .8v-1.3l.8 1 .4-1.2.5 1.2.6-1.2.3 1.3.8-1v1.3l1-.7-.3 1.2 1.2-.5-.6 1.2 1.3-.2-.9.9 1.3.1-1.1.8 1.3.4-1.2.4zM316.1 82.9l-.8.1.5.6-.7-.1.4.6-.7-.2.2.7-.6-.4.1.7-.5-.5-.1.7-.4-.6-.3.7-.2-.7-.4.6-.1-.7-.5.5.1-.8-.7.4.3-.7-.7.2.4-.6h-.7l.5-.5-.7-.1.6-.3-.6-.3.7-.2-.6-.5h.7l-.4-.6.7.2-.3-.7.6.3-.1-.7.6.4v-.7l.4.6.2-.7.3.6.4-.6.1.7.5-.5v.7l.6-.4-.2.7.7-.3-.4.6.8-.1-.5.6h.7l-.6.5.7.2-.7.3zM334.2 51l-.7.1.5.5h-.7l.4.6-.7-.3.2.7-.6-.3.1.7-.6-.5-.1.7-.3-.6-.3.7-.2-.7-.5.6v-.8l-.6.5.1-.7-.6.3.3-.6-.7.2.4-.6h-.8l.6-.5-.7-.1.6-.4-.7-.3.8-.2-.6-.4.7-.1-.5-.5.8.1-.4-.7.7.4-.1-.8.5.5.1-.7.4.5.2-.7.3.7.3-.7.2.8.5-.6v.7l.6-.4-.2.7.7-.3-.4.7.7-.1-.5.5.8.1-.6.4.7.2-.7.3zM78.7 76l-1.3.2 1 .9-1.3-.1.7 1.1-1.3-.4.4 1.2-1.1-.7.2 1.3-.9-.9-.2 1.3-.7-1.1-.5 1.2-.4-1.2-.7 1-.1-1.3-1 .9.2-1.3-1.1.6.4-1.2-1.2.4.7-1.1-1.2.1.9-.9-1.2-.2 1.1-.6-1.2-.6 1.3-.3-1.1-.8 1.3-.1-.8-1 1.3.3-.6-1.2 1.2.6-.3-1.3 1 .8.1-1.3.8 1 .3-1.2.5 1.2.6-1.2.3 1.3.9-1-.1 1.3 1.1-.8-.4 1.3 1.2-.5-.6 1.2 1.3-.2-.9.9 1.3.1-1 .8 1.2.4-1.2.4zM185.9 56.3l-1.3.2 1 .9-1.3-.1.7 1.1-1.3-.4.5 1.2-1.1-.6.1 1.3-.9-1-.2 1.3-.7-1.1-.5 1.2-.4-1.2-.7 1.1-.1-1.3-1 .8.2-1.2-1.1.6.5-1.2-1.3.3.8-1h-1.3l.9-.8-1.2-.3 1.1-.6-1.2-.5 1.3-.4-1-.8h1.2l-.8-1 1.3.3-.6-1.2 1.2.5-.3-1.2 1.1.8v-1.3l.8 1 .3-1.3.6 1.2.6-1.1.2 1.2.9-.9-.1 1.3 1.1-.8-.3 1.2 1.2-.4-.7 1.1 1.3-.2-.8 1 1.2.1-1 .7 1.2.4-1.2.5zM122.6 39.2l-1.3.2 1 .9-1.3-.1.7 1.1-1.3-.4.5 1.2-1.2-.7.2 1.3-.9-.9-.2 1.3-.7-1.1-.5 1.2-.4-1.2-.7 1-.1-1.2-1 .8.2-1.3-1.1.7.5-1.2-1.3.3.8-1h-1.3l.9-.9-1.2-.2 1.1-.6-1.2-.6 1.3-.3-1.1-.8h1.3l-.8-1 1.3.2-.6-1.1 1.2.5-.3-1.3 1 .8.1-1.2.8 1 .3-1.3.6 1.2.5-1.2.3 1.3.9-1-.1 1.3 1.1-.7-.4 1.2 1.2-.5-.6 1.2 1.3-.2-.9.9 1.3.1-1 .8 1.2.4-1.2.5zM115.7 105.6l-1.9.3 1.3 1.3-1.9-.2 1.1 1.7-1.9-.6.7 1.8-1.7-1 .2 1.9-1.4-1.4-.2 1.9-1-1.6-.7 1.8-.6-1.8-1.1 1.6-.2-2-1.4 1.3.3-1.9-1.7 1 .7-1.8-1.9.5 1.1-1.6-1.9.1 1.5-1.3-1.9-.4 1.7-.9-1.8-.8 1.9-.5-1.6-1.2h2l-1.2-1.5 1.8.4-.8-1.8 1.8.8-.4-1.8 1.5 1.2v-2l1.2 1.5.5-1.8.8 1.7.9-1.7.4 1.9 1.2-1.4v1.9l1.6-1.1-.5 1.8 1.7-.7-.9 1.7 1.9-.3-1.3 1.4 2 .2-1.6 1.1 1.8.6-1.8.7zM110.8 66.6l-1.9.3 1.3 1.3-1.9-.1 1.1 1.6-1.9-.6.7 1.8-1.7-1 .2 1.9-1.4-1.4-.2 1.9-1-1.6-.7 1.8-.6-1.8-1.1 1.6-.2-1.9-1.4 1.2.3-1.9-1.7 1 .7-1.8-1.9.5 1.1-1.6-1.9.1 1.5-1.3-1.9-.4 1.7-.9-1.8-.8 1.9-.5-1.6-1.2h2l-1.2-1.5 1.8.4-.8-1.8 1.8.9-.4-1.9 1.5 1.2v-2l1.2 1.5.5-1.8.8 1.7.9-1.7.4 1.9 1.2-1.4v1.9l1.6-1.1-.5 1.8 1.7-.7-.9 1.7 1.9-.3-1.3 1.4 2 .2-1.6 1.1 1.8.6-1.8.7z" />
  </svg>